<?xml version="1.0" encoding="utf-8"?>
<!-- Generator: Adobe Illustrator 19.1.0, SVG Export Plug-In . SVG Version: 6.00 Build 0)  -->
<svg version="1.1" id="Layer_1" xmlns="http://www.w3.org/2000/svg" xmlns:xlink="http://www.w3.org/1999/xlink" x="0px" y="0px"
	 viewBox="-269 367 60 60" style="enable-background:new -269 367 60 60;" xml:space="preserve">
<style type="text/css">
	.st0{fill:#007AB9;}
</style>
<path class="st0" d="M-222.2,411.1v-11.7c0-6.3-3.4-9.2-7.8-9.2c-3.6,0-5.2,2-6.1,3.4v-2.9h-6.8c0.1,1.9,0,20.4,0,20.4h6.8v-11.4
	c0-0.6,0-1.2,0.2-1.7c0.5-1.2,1.6-2.5,3.5-2.5c2.5,0,3.4,1.9,3.4,4.6v10.9H-222.2z M-250,387.9c2.4,0,3.8-1.6,3.8-3.5
	c0-2-1.5-3.5-3.8-3.5s-3.8,1.5-3.8,3.5C-253.8,386.4-252.4,387.9-250,387.9L-250,387.9z M-246.6,411.1v-20.4h-6.8v20.4H-246.6z
	 M-269,367h60v60h-60V367z"/>
</svg>
