<?xml version="1.0" encoding="utf-8"?>
<!-- Generator: Adobe Illustrator 19.1.0, SVG Export Plug-In . SVG Version: 6.00 Build 0)  -->
<svg version="1.1" id="Layer_1" xmlns="http://www.w3.org/2000/svg" xmlns:xlink="http://www.w3.org/1999/xlink" x="0px" y="0px"
	 viewBox="-245 337 120 120" style="enable-background:new -245 337 120 120;" xml:space="preserve">
<style type="text/css">
	.st0{fill:#FFA500;}
	.st1{fill:#FFFFFF;}
</style>
<rect x="-245" y="337" class="st0" width="120" height="120"/>
<polygon class="st1" points="-160.6,430.8 -160.6,407.6 -152.9,407.6 -152.9,438.5 -222.4,438.5 -222.4,407.6 -214.7,407.6 
	-214.7,430.8 "/>
<path class="st1" d="M-206.2,405.4l37.8,7.9l1.6-7.6l-37.8-7.9L-206.2,405.4z M-201.2,387.4l35,16.3l3.2-7l-35-16.4L-201.2,387.4z
	 M-191.5,370.2l29.7,24.7l4.9-5.9l-29.7-24.7L-191.5,370.2z M-172.3,351.9l-6.2,4.6l23,31l6.2-4.6L-172.3,351.9z M-207,423h38.6
	v-7.7H-207V423z"/>
</svg>
